#Comment line ignore any data following # character 
#Hierarchical Translation and Rotation (.htr) file 
[Header]	
#Header keywords are followed by a single value 
FileType HTR		#Single word string
DataType HTRS		#Translation followed by rotation and scale data
FileVersion 1		#integer
NumSegments 84		#integer
NumFrames 2		#integer
DataFrameRate 30		#integer, data frame rate in this file
EulerRotationOrder ZYX
CalibrationUnits mm
RotationUnits Degrees
GlobalAxisofGravity Y
BoneLengthAxis Y
ScaleFactor 1.00
[SegmentNames&Hierarchy]
#CHILD	PARENT
MASTER GLOBAL
root MASTER
chest root
L_mid_tent01 root
R_mid_tent01 root
spine01 root
Bip01_Neck chest
L_humerus chest
R_humerus chest
weapon_bone chest
Bip01_Head Bip01_Neck
eye_left_bone Bip01_Head
eye_right_bone Bip01_Head
L_forearm L_humerus
L_front_hand L_forearm
L_weapon_bone L_forearm
L_front_hand01_01 L_front_hand
L_front_hand02_01 L_front_hand
L_front_hand03_01 L_front_hand
L_front_hand01_02 L_front_hand01_01
L_front_hand02_02 L_front_hand02_01
L_front_hand03_02 L_front_hand03_01
R_forearm R_humerus
R_front_hand R_forearm
R_weapon_bone R_forearm
R_front_hand01_01 R_front_hand
R_front_hand02_01 R_front_hand
R_front_hand03_01 R_front_hand
R_front_hand01_02 R_front_hand01_01
R_front_hand02_02 R_front_hand02_01
R_front_hand03_02 R_front_hand03_01
null_rope01_connect L_mid_tent01
Rope1_Seg01 null_rope01_connect
Rope1_Seg02 Rope1_Seg01
Rope1_Seg03 Rope1_Seg02
Rope1_Seg04 Rope1_Seg03
Rope1_Seg05 Rope1_Seg04
Rope1_Seg06 Rope1_Seg05
Rope1_Seg07 Rope1_Seg06
Rope1_Seg09 Rope1_Seg07
L_mid_hand01 Rope1_Seg09
L_mid_hand02 Rope1_Seg09
L_mid_hand03 Rope1_Seg09
null_rope02_connect R_mid_tent01
Rope2_Seg01 null_rope02_connect
Rope2_Seg02 Rope2_Seg01
Rope2_Seg03 Rope2_Seg02
Rope2_Seg04 Rope2_Seg03
Rope2_Seg05 Rope2_Seg04
Rope2_Seg06 Rope2_Seg05
Rope2_Seg07 Rope2_Seg06
Rope2_Seg09 Rope2_Seg07
R_mid_hand01 Rope2_Seg09
R_mid_hand02 Rope2_Seg09
R_mid_hand03 Rope2_Seg09
spine02 spine01
spine03 spine02
pelvis spine03
null_rope03_connect pelvis
null_rope04_connect pelvis
Rope3_Seg01 null_rope03_connect
Rope3_Seg02 Rope3_Seg01
Rope3_Seg03 Rope3_Seg02
Rope3_Seg04 Rope3_Seg03
Rope3_Seg05 Rope3_Seg04
Rope3_Seg06 Rope3_Seg05
Rope3_Seg07 Rope3_Seg06
Rope3_Seg08 Rope3_Seg07
Rope3_Seg09 Rope3_Seg08
R_rear_hand01 Rope3_Seg09
R_rear_hand02 Rope3_Seg09
R_rear_hand03 Rope3_Seg09
Rope4_Seg01 null_rope04_connect
Rope4_Seg02 Rope4_Seg01
Rope4_Seg03 Rope4_Seg02
Rope4_Seg04 Rope4_Seg03
Rope4_Seg05 Rope4_Seg04
Rope4_Seg06 Rope4_Seg05
Rope4_Seg07 Rope4_Seg06
Rope4_Seg08 Rope4_Seg07
Rope4_Seg09 Rope4_Seg08
L_rear_hand01 Rope4_Seg09
L_rear_hand02 Rope4_Seg09
L_rear_hand03 Rope4_Seg09
[BasePosition]
#SegmentName Tx, Ty, Tz, Rx, Ry, Rz, BoneLength
MASTER 0.000000 0.000000 0.000000 -90.000000 0.000000 0.000000 10.000000 
root 0.000000 0.000000 0.000000 0.000000 0.000000 0.000000 10.000000 
chest 0.000000 0.000000 0.000000 0.000000 0.000000 0.000000 10.000000 
L_mid_tent01 0.000000 0.000000 0.000000 0.000000 0.000000 0.000000 10.000000 
R_mid_tent01 0.000000 0.000000 0.000000 0.000000 0.000000 0.000000 10.000000 
spine01 0.000000 0.000000 0.000000 0.000000 0.000000 0.000000 10.000000 
Bip01_Neck 0.000000 0.000000 0.000000 0.000000 0.000000 0.000000 10.000000 
L_humerus 0.000000 0.000000 0.000000 0.000000 0.000000 0.000000 10.000000 
R_humerus 0.000000 0.000000 0.000000 0.000000 0.000000 0.000000 10.000000 
weapon_bone 0.000000 0.000000 0.000000 0.000000 0.000000 0.000000 10.000000 
Bip01_Head 0.000000 0.000000 0.000000 0.000000 0.000000 0.000000 10.000000 
eye_left_bone 0.000000 0.000000 0.000000 0.000000 0.000000 0.000000 10.000000 
eye_right_bone 0.000000 0.000000 0.000000 0.000000 0.000000 0.000000 10.000000 
L_forearm 0.000000 0.000000 0.000000 0.000000 0.000000 0.000000 10.000000 
L_front_hand 0.000000 0.000000 0.000000 0.000000 0.000000 0.000000 10.000000 
L_weapon_bone 0.000000 0.000000 0.000000 0.000000 0.000000 0.000000 10.000000 
L_front_hand01_01 0.000000 0.000000 0.000000 0.000000 0.000000 0.000000 10.000000 
L_front_hand02_01 0.000000 0.000000 0.000000 0.000000 0.000000 0.000000 10.000000 
L_front_hand03_01 0.000000 0.000000 0.000000 0.000000 0.000000 0.000000 10.000000 
L_front_hand01_02 0.000000 0.000000 0.000000 0.000000 0.000000 0.000000 10.000000 
L_front_hand02_02 0.000000 0.000000 0.000000 0.000000 0.000000 0.000000 10.000000 
L_front_hand03_02 0.000000 0.000000 0.000000 0.000000 0.000000 0.000000 10.000000 
R_forearm 0.000000 0.000000 0.000000 0.000000 0.000000 0.000000 10.000000 
R_front_hand 0.000000 0.000000 0.000000 0.000000 0.000000 0.000000 10.000000 
R_weapon_bone 0.000000 0.000000 0.000000 0.000000 0.000000 0.000000 10.000000 
R_front_hand01_01 0.000000 0.000000 0.000000 0.000000 0.000000 0.000000 10.000000 
R_front_hand02_01 0.000000 0.000000 0.000000 0.000000 0.000000 0.000000 10.000000 
R_front_hand03_01 0.000000 0.000000 0.000000 0.000000 0.000000 0.000000 10.000000 
R_front_hand01_02 0.000000 0.000000 0.000000 0.000000 0.000000 0.000000 10.000000 
R_front_hand02_02 0.000000 0.000000 0.000000 0.000000 0.000000 0.000000 10.000000 
R_front_hand03_02 0.000000 0.000000 0.000000 0.000000 0.000000 0.000000 10.000000 
null_rope01_connect 0.000000 0.000000 0.000000 0.000000 0.000000 0.000000 10.000000 
Rope1_Seg01 0.000000 0.000000 0.000000 0.000000 0.000000 0.000000 10.000000 
Rope1_Seg02 0.000000 0.000000 0.000000 0.000000 0.000000 0.000000 10.000000 
Rope1_Seg03 0.000000 0.000000 0.000000 0.000000 0.000000 0.000000 10.000000 
Rope1_Seg04 0.000000 0.000000 0.000000 0.000000 0.000000 0.000000 10.000000 
Rope1_Seg05 0.000000 0.000000 0.000000 0.000000 0.000000 0.000000 10.000000 
Rope1_Seg06 0.000000 0.000000 0.000000 0.000000 0.000000 0.000000 10.000000 
Rope1_Seg07 0.000000 0.000000 0.000000 0.000000 0.000000 0.000000 10.000000 
Rope1_Seg09 0.000000 0.000000 0.000000 0.000000 0.000000 0.000000 10.000000 
L_mid_hand01 0.000000 0.000000 0.000000 0.000000 0.000000 0.000000 10.000000 
L_mid_hand02 0.000000 0.000000 0.000000 0.000000 0.000000 0.000000 10.000000 
L_mid_hand03 0.000000 0.000000 0.000000 0.000000 0.000000 0.000000 10.000000 
null_rope02_connect 0.000000 0.000000 0.000000 0.000000 0.000000 0.000000 10.000000 
Rope2_Seg01 0.000000 0.000000 0.000000 0.000000 0.000000 0.000000 10.000000 
Rope2_Seg02 0.000000 0.000000 0.000000 0.000000 0.000000 0.000000 10.000000 
Rope2_Seg03 0.000000 0.000000 0.000000 0.000000 0.000000 0.000000 10.000000 
Rope2_Seg04 0.000000 0.000000 0.000000 0.000000 0.000000 0.000000 10.000000 
Rope2_Seg05 0.000000 0.000000 0.000000 0.000000 0.000000 0.000000 10.000000 
Rope2_Seg06 0.000000 0.000000 0.000000 0.000000 0.000000 0.000000 10.000000 
Rope2_Seg07 0.000000 0.000000 0.000000 0.000000 0.000000 0.000000 10.000000 
Rope2_Seg09 0.000000 0.000000 0.000000 0.000000 0.000000 0.000000 10.000000 
R_mid_hand01 0.000000 0.000000 0.000000 0.000000 0.000000 0.000000 10.000000 
R_mid_hand02 0.000000 0.000000 0.000000 0.000000 0.000000 0.000000 10.000000 
R_mid_hand03 0.000000 0.000000 0.000000 0.000000 0.000000 0.000000 10.000000 
spine02 0.000000 0.000000 0.000000 0.000000 0.000000 0.000000 10.000000 
spine03 0.000000 0.000000 0.000000 0.000000 0.000000 0.000000 10.000000 
pelvis 0.000000 0.000000 0.000000 0.000000 0.000000 0.000000 10.000000 
null_rope03_connect 0.000000 0.000000 0.000000 0.000000 0.000000 0.000000 10.000000 
null_rope04_connect 0.000000 0.000000 0.000000 0.000000 0.000000 0.000000 10.000000 
Rope3_Seg01 0.000000 0.000000 0.000000 0.000000 0.000000 0.000000 10.000000 
Rope3_Seg02 0.000000 0.000000 0.000000 0.000000 0.000000 0.000000 10.000000 
Rope3_Seg03 0.000000 0.000000 0.000000 0.000000 0.000000 0.000000 10.000000 
Rope3_Seg04 0.000000 0.000000 0.000000 0.000000 0.000000 0.000000 10.000000 
Rope3_Seg05 0.000000 0.000000 0.000000 0.000000 0.000000 0.000000 10.000000 
Rope3_Seg06 0.000000 0.000000 0.000000 0.000000 0.000000 0.000000 10.000000 
Rope3_Seg07 0.000000 0.000000 0.000000 0.000000 0.000000 0.000000 10.000000 
Rope3_Seg08 0.000000 0.000000 0.000000 0.000000 0.000000 0.000000 10.000000 
Rope3_Seg09 0.000000 0.000000 0.000000 0.000000 0.000000 0.000000 10.000000 
R_rear_hand01 0.000000 0.000000 0.000000 0.000000 0.000000 0.000000 10.000000 
R_rear_hand02 0.000000 0.000000 0.000000 0.000000 0.000000 0.000000 10.000000 
R_rear_hand03 0.000000 0.000000 0.000000 0.000000 0.000000 0.000000 10.000000 
Rope4_Seg01 0.000000 0.000000 0.000000 0.000000 0.000000 0.000000 10.000000 
Rope4_Seg02 0.000000 0.000000 0.000000 0.000000 0.000000 0.000000 10.000000 
Rope4_Seg03 0.000000 0.000000 0.000000 0.000000 0.000000 0.000000 10.000000 
Rope4_Seg04 0.000000 0.000000 0.000000 0.000000 0.000000 0.000000 10.000000 
Rope4_Seg05 0.000000 0.000000 0.000000 0.000000 0.000000 0.000000 10.000000 
Rope4_Seg06 0.000000 0.000000 0.000000 0.000000 0.000000 0.000000 10.000000 
Rope4_Seg07 0.000000 0.000000 0.000000 0.000000 0.000000 0.000000 10.000000 
Rope4_Seg08 0.000000 0.000000 0.000000 0.000000 0.000000 0.000000 10.000000 
Rope4_Seg09 0.000000 0.000000 0.000000 0.000000 0.000000 0.000000 10.000000 
L_rear_hand01 0.000000 0.000000 0.000000 0.000000 0.000000 0.000000 10.000000 
L_rear_hand02 0.000000 0.000000 0.000000 0.000000 0.000000 0.000000 10.000000 
L_rear_hand03 0.000000 0.000000 0.000000 0.000000 0.000000 0.000000 10.000000 
#Beginning of Data. Separated by tabs
#Fr	Tx	Ty	Tz	Rx	Ry	Rz	SF
[MASTER]
18 -0.000260 1776.535889 5352.448242 0.001660 0.001660 0.001660 5639.573242
19 -0.000290 1941.920532 5562.635254 0.001660 0.001660 0.001660 5891.855957
[root]
18 11.443969 -78.213348 1352.413818 -96.337036 -18.357752 -92.288322 1354.721802
19 23.469860 -78.814796 1308.661987 -97.245895 -19.619255 -92.337799 1311.243164
[chest]
18 -84.512650 -34.090519 0.000000 7.102194 6.144717 -138.387589 91.129311
19 -84.512650 -34.090519 0.000000 7.467692 5.908141 -140.271759 91.129311
[L_mid_tent01]
18 27.299101 22.179247 -249.918701 -0.053957 9.925672 70.102875 252.381699
19 27.299105 22.179256 -249.918701 -0.478572 12.791249 69.451332 252.381699
[R_mid_tent01]
18 23.228794 24.509907 226.238495 169.396057 -20.819630 68.974258 228.744751
19 23.228794 24.509907 226.238495 170.043579 -22.403852 66.610565 228.744751
[spine01]
18 -0.361383 -0.195265 0.000000 0.001958 0.001295 23.021347 0.410763
19 -0.361383 -0.195265 0.000000 0.001958 0.001295 23.022610 0.410763
[Bip01_Neck]
18 165.484543 71.581718 0.000119 176.643677 -1.657967 43.431911 180.302734
19 165.484543 71.581718 0.000119 176.643677 -1.657967 43.431911 180.302734
[L_humerus]
18 -13.983130 -135.272980 -120.471481 131.225876 79.187149 -138.195923 181.680161
19 -13.983130 -135.272980 -120.471481 124.840324 80.103363 -144.670349 181.680161
[R_humerus]
18 -13.983309 -135.273102 125.287651 -165.373108 -76.827988 -100.128258 184.909012
19 -13.983309 -135.273102 125.287651 -165.001068 -77.227280 -100.491852 184.909012
[weapon_bone]
18 235.964890 -300.705902 0.000000 0.000000 -89.951546 -128.212341 382.234833
19 235.964890 -300.705902 0.000000 0.000000 -89.951546 -128.212341 382.234833
[Bip01_Head]
18 213.450928 185.698090 12.008368 4.973758 6.865438 -43.828430 283.177094
19 213.494873 185.573730 13.612221 4.971846 6.454426 -43.842098 283.201294
[eye_left_bone]
18 -24.626970 125.451866 -64.772606 0.000000 -90.000000 -99.840431 143.318359
19 -24.626970 125.451866 -64.772606 0.000000 -90.000000 -99.840431 143.318359
[eye_right_bone]
18 -24.626970 125.451866 64.327362 0.000000 -89.965736 80.156380 143.117676
19 -24.626970 125.451866 64.327362 0.000000 -89.965736 80.156380 143.117676
[L_forearm]
18 322.776093 0.000000 -0.000119 0.000132 -0.002344 -96.425720 322.776093
19 322.776093 0.000000 -0.000119 0.000135 -0.002343 -96.591530 322.776093
[L_front_hand]
18 241.149185 -0.042021 -3.300071 -177.583267 -1.835858 -27.423698 241.171753
19 241.149185 -0.042021 -3.300071 -177.313492 -1.835344 -27.423672 241.171753
[L_weapon_bone]
18 156.183838 0.000000 0.000000 0.000014 0.000007 0.000001 156.183838
19 156.183838 0.000000 0.000000 0.000014 0.000007 0.000001 156.183838
[L_front_hand01_01]
18 86.095154 20.947098 -0.655860 -0.281026 -0.528937 65.755096 88.609184
19 86.095154 20.947098 -0.655860 -0.289102 -0.524108 66.611092 88.609184
[L_front_hand02_01]
18 86.935165 -11.437475 24.513514 141.611877 -54.742985 -46.215736 91.046425
19 86.935165 -11.437475 24.513514 142.580521 -55.269005 -47.395390 91.046425
[L_front_hand03_01]
18 86.637497 -14.123976 -20.424902 -141.973587 52.970398 -48.259953 90.126129
19 86.637497 -14.123976 -20.424902 -142.879883 53.494289 -49.392002 90.126129
[L_front_hand01_02]
18 71.020905 -0.000179 0.000030 0.000315 -0.002326 -105.431618 71.020905
19 71.020905 -0.000179 0.000030 0.000317 -0.002326 -105.524834 71.020905
[L_front_hand02_02]
18 71.020927 -0.000119 0.000060 0.000315 -0.002326 -105.431618 71.020927
19 71.020927 -0.000119 0.000060 0.000317 -0.002326 -105.524834 71.020927
[L_front_hand03_02]
18 71.020905 -0.000060 0.000060 0.000315 -0.002326 -105.431618 71.020905
19 71.020905 -0.000060 0.000060 0.000317 -0.002326 -105.524834 71.020905
[R_forearm]
18 322.776428 -0.000060 0.000030 0.212776 0.017350 -94.951218 322.776428
19 322.776428 -0.000060 0.000030 0.212748 0.017698 -95.138832 322.776428
[R_front_hand]
18 238.847015 -0.006795 2.210259 3.582911 -10.643229 -26.316133 238.857239
19 238.847015 -0.006795 2.210259 5.098215 -10.646643 -26.312687 238.857239
[R_weapon_bone]
18 155.664093 0.002503 -0.000030 0.003487 0.001180 -90.988930 155.664078
19 155.664093 0.002503 -0.000030 0.003487 0.001180 -90.988930 155.664078
[R_front_hand01_01]
18 87.624611 14.231146 22.918642 -139.165222 -53.267765 43.295258 91.683487
19 87.624611 14.231146 22.918642 -141.083969 -54.436916 45.672497 91.683487
[R_front_hand02_01]
18 89.356956 14.367283 -19.491137 139.980438 51.699226 45.970741 92.579636
19 89.356956 14.367283 -19.491137 141.813004 52.852688 48.289940 92.579636
[R_front_hand03_01]
18 87.286232 -22.307278 -0.143439 0.071045 -0.448771 -63.677074 90.091743
19 87.286232 -22.307278 -0.143439 0.082367 -0.444902 -65.508446 90.091743
[R_front_hand01_02]
18 71.020905 0.000060 0.000119 0.002323 -0.000334 106.381714 71.020905
19 71.020905 0.000060 0.000119 0.002323 -0.000334 106.381714 71.020905
[R_front_hand02_02]
18 71.020844 -0.000030 -0.000119 0.002323 -0.000334 106.381714 71.020836
19 71.020844 -0.000030 -0.000119 0.002323 -0.000334 106.381714 71.020836
[R_front_hand03_02]
18 71.020905 0.000000 0.000030 0.002323 -0.000334 106.381714 71.020905
19 71.020905 0.000000 0.000030 0.002323 -0.000334 106.381714 71.020905
[null_rope01_connect]
18 328.732483 0.000000 -0.000238 -143.201279 -72.688240 -178.642136 328.732483
19 328.732483 0.000000 -0.000238 -143.281494 -68.884323 -176.695892 328.732483
[Rope1_Seg01]
18 -0.000032 0.000026 0.000105 -163.667938 43.676384 -132.493835 0.000113
19 -0.000032 0.000026 0.000103 -119.915108 44.752411 -115.523048 0.000111
[Rope1_Seg02]
18 139.999863 -0.000179 0.000000 -3.921027 -12.980726 17.438740 139.999863
19 139.999863 -0.000179 0.000000 -20.562237 1.302046 19.379845 139.999863
[Rope1_Seg03]
18 139.999924 0.000060 -0.000060 -7.640267 -12.363138 27.350405 139.999924
19 139.999924 0.000060 -0.000060 -14.196731 1.385273 24.532597 139.999924
[Rope1_Seg04]
18 139.999924 -0.000060 -0.000119 -1.661963 -14.762645 14.473193 139.999924
19 139.999924 -0.000060 -0.000119 -1.933653 -10.270526 14.060488 139.999924
[Rope1_Seg05]
18 139.999832 0.000119 -0.000060 -1.144950 -24.238127 -9.507182 139.999832
19 139.999832 0.000119 -0.000060 6.174929 -30.611364 -8.044269 139.999832
[Rope1_Seg06]
18 139.999954 0.000119 -0.000060 -2.697711 -13.000382 -6.276809 139.999954
19 139.999954 0.000119 -0.000060 -0.597160 -15.706572 -2.971763 139.999954
[Rope1_Seg07]
18 139.999985 0.000060 0.000000 -1.551989 -5.593699 -2.056961 139.999985
19 139.999985 0.000060 0.000000 -0.861968 -6.187575 -0.516395 139.999985
[Rope1_Seg09]
18 121.602913 0.000119 -0.000089 -89.793175 -1.359789 0.847147 121.602913
19 121.602913 0.000119 -0.000089 -89.793175 -1.359789 0.847147 121.602913
[L_mid_hand01]
18 103.859421 1.038730 8.195221 109.630608 -42.428215 -14.062108 104.187431
19 103.859421 1.038730 8.195221 110.331230 -44.470791 -15.085362 104.187431
[L_mid_hand02]
18 105.572853 -4.139662 -10.864139 -147.734787 32.524986 -39.820686 106.211075
19 105.572853 -4.139662 -10.864139 -148.937714 33.668667 -42.029247 106.211075
[L_mid_hand03]
18 104.641464 17.579376 -3.913581 -13.849794 12.791808 45.822674 106.179977
19 104.641464 17.579376 -3.913581 -13.360329 13.301841 47.989174 106.179977
[null_rope02_connect]
18 328.732849 0.000179 -0.000119 -100.699608 72.613525 38.870892 328.732849
19 328.732849 0.000179 -0.000119 -98.635231 72.053650 37.476570 328.732849
[Rope2_Seg01]
18 0.000050 0.000105 0.000000 155.012924 36.784939 -62.260120 0.000117
19 0.000051 0.000103 0.000000 98.067307 13.743715 -65.365112 0.000114
[Rope2_Seg02]
18 139.999741 -0.000060 -0.000119 55.372810 -0.249406 -25.491186 139.999756
19 139.999741 -0.000060 -0.000119 117.808075 22.095705 -25.697899 139.999756
[Rope2_Seg03]
18 140.000107 0.000030 0.000000 24.827705 -7.193420 -12.126206 140.000107
19 140.000107 0.000030 0.000000 21.021732 -13.627194 -4.787006 140.000107
[Rope2_Seg04]
18 139.999802 0.000000 -0.000060 5.350383 -5.771835 -1.537356 139.999802
19 139.999802 0.000000 -0.000060 2.729634 -5.346100 0.537838 139.999802
[Rope2_Seg05]
18 139.999985 -0.000060 0.000119 -5.993352 -16.768999 13.395147 139.999985
19 139.999985 -0.000060 0.000119 -1.150263 -8.870054 4.735445 139.999985
[Rope2_Seg06]
18 139.999893 -0.000030 -0.000119 -25.005739 -46.696770 54.189350 139.999893
19 139.999893 -0.000030 -0.000119 -16.322428 -43.000568 34.580605 139.999893
[Rope2_Seg07]
18 139.999893 0.000060 -0.000060 2.476142 -17.298182 12.536892 139.999893
19 139.999893 0.000060 -0.000060 -6.403890 -37.761677 24.735964 139.999893
[Rope2_Seg09]
18 121.338966 0.000089 -0.000060 33.793236 -1.359788 -0.847141 121.338966
19 121.338966 0.000089 -0.000060 33.793236 -1.359788 -0.847141 121.338966
[R_mid_hand01]
18 104.680779 11.144459 -10.335981 -35.659069 33.675755 40.429821 105.778534
19 104.680779 11.144459 -10.335981 -36.495327 32.739502 38.894321 105.778534
[R_mid_hand02]
18 104.070427 2.443552 8.231699 69.379761 -45.224773 15.491555 104.424065
19 104.070427 2.443552 8.231699 69.926315 -43.736977 14.713633 104.424065
[R_mid_hand03]
18 106.028137 -11.221827 -5.996406 -170.548004 12.734508 -50.222607 106.788818
19 106.028137 -11.221827 -5.996406 -170.196442 12.469418 -48.616356 106.788818
[spine02]
18 129.756927 0.001550 0.000119 -0.964589 -3.946096 5.891866 129.756927
19 129.756927 0.001550 0.000119 -0.945975 -3.948700 5.638536 129.756927
[spine03]
18 78.614014 0.081598 -4.898987 1.080192 4.135613 4.763471 78.766556
19 78.614006 0.081587 -4.898987 1.091141 4.133836 4.929799 78.766541
[pelvis]
18 169.435242 0.051022 0.000000 0.017679 -0.190413 -9.614179 169.435257
19 169.435242 0.051022 0.000000 0.017143 -0.190462 -9.291612 169.435257
[null_rope03_connect]
18 -1.257226 -2.466202 137.391083 -145.450302 -82.404900 -130.304871 137.418976
19 -1.257226 -2.466202 137.391083 -145.748489 -81.471291 -128.992767 137.418976
[null_rope04_connect]
18 -1.259640 -2.480268 -137.844437 -145.450302 -82.404900 -130.304871 137.872513
19 -1.259640 -2.480268 -137.844437 -145.748489 -81.471291 -128.992767 137.872513
[Rope3_Seg01]
18 0.000000 0.000000 0.000000 -122.417374 -55.396381 -96.465942 0.000000
19 0.000000 0.000000 0.000000 -122.596298 -56.386547 -96.311668 0.000000
[Rope3_Seg02]
18 139.999924 -0.000119 0.000060 2.970109 -14.655334 -26.929180 139.999924
19 139.999924 -0.000119 0.000060 5.913383 -19.456369 -27.402235 139.999924
[Rope3_Seg03]
18 139.999924 -0.000119 0.000119 3.643414 -14.545319 -22.360256 139.999924
19 139.999924 -0.000119 0.000119 12.101839 -18.112028 -17.582588 139.999924
[Rope3_Seg04]
18 139.999924 0.000119 0.000000 8.286138 -9.104860 -9.542172 139.999924
19 139.999924 0.000119 0.000000 17.029795 -10.561933 -4.160311 139.999924
[Rope3_Seg05]
18 139.999924 -0.000238 0.000060 -17.149191 -1.970495 -8.408566 139.999924
19 139.999924 -0.000238 0.000060 -1.711816 -4.126412 -7.212280 139.999924
[Rope3_Seg06]
18 139.999893 -0.000119 -0.000060 -76.835251 5.989713 -12.340342 139.999893
19 139.999893 -0.000119 -0.000060 -107.674866 -1.820550 -17.568357 139.999893
[Rope3_Seg07]
18 139.999771 0.000060 -0.000119 -22.595078 15.822919 4.130262 139.999771
19 139.999771 0.000060 -0.000119 -29.163385 24.094585 6.518462 139.999771
[Rope3_Seg08]
18 139.999985 -0.000060 0.000000 -4.779380 7.619157 4.581178 139.999985
19 139.999985 -0.000060 0.000000 -2.733392 9.222260 7.639036 139.999985
[Rope3_Seg09]
18 90.185997 -0.000179 -0.000060 89.793228 -1.359877 -0.847183 90.185997
19 90.185997 -0.000179 -0.000060 89.793228 -1.359877 -0.847183 90.185997
[R_rear_hand01]
18 103.366196 -6.073594 -10.757982 -165.364609 20.073744 -42.141060 104.101845
19 103.366196 -6.073594 -10.757982 -164.915863 19.747875 -40.821388 104.101845
[R_rear_hand02]
18 100.509819 12.039542 -7.992327 -30.084064 25.665667 39.802113 101.543350
19 100.509819 12.039542 -7.992327 -30.611040 25.017698 38.577400 101.543350
[R_rear_hand03]
18 101.539970 5.215704 5.435467 82.244080 -42.772594 9.150355 101.819031
19 101.539970 5.215704 5.435467 82.396400 -41.501785 8.918382 101.819031
[Rope4_Seg01]
18 0.000010 0.000026 -0.000105 56.485363 -40.597198 -108.452950 0.000109
19 0.000010 0.000026 -0.000103 51.661446 -38.980186 -101.030716 0.000106
[Rope4_Seg02]
18 139.999985 0.000060 0.000119 7.061430 -28.472561 -1.664197 139.999985
19 139.999985 0.000060 0.000119 5.924506 -29.875944 -0.606410 139.999985
[Rope4_Seg03]
18 139.999924 0.000000 -0.000238 16.430841 -24.727053 -1.342979 139.999924
19 139.999924 0.000000 -0.000238 15.949836 -26.415356 0.148052 139.999924
[Rope4_Seg04]
18 139.999985 0.000000 0.000119 11.509837 -9.365644 0.167880 139.999985
19 139.999985 0.000000 0.000119 11.148511 -9.168712 1.497902 139.999985
[Rope4_Seg05]
18 139.999802 -0.000060 -0.000119 41.495617 -9.987025 10.819830 139.999802
19 139.999802 -0.000060 -0.000119 38.019299 -12.424510 11.414464 139.999802
[Rope4_Seg06]
18 139.999924 0.000000 0.000060 40.706814 4.313282 44.876339 139.999924
19 139.999924 0.000000 0.000060 42.914482 -3.637872 46.431042 139.999924
[Rope4_Seg07]
18 139.999802 0.000000 0.000000 8.492151 22.501892 24.628838 139.999802
19 139.999802 0.000000 0.000000 8.052763 17.852245 23.227697 139.999802
[Rope4_Seg08]
18 139.999924 0.000000 0.000119 -1.240160 6.450871 6.127068 139.999924
19 139.999924 0.000000 0.000119 -1.047229 5.406474 5.921354 139.999924
[Rope4_Seg09]
18 90.185791 0.000060 0.000060 -135.617828 2.228885 0.850567 90.185791
19 90.185791 0.000060 0.000060 -135.617828 2.228885 0.850567 90.185791
[L_rear_hand01]
18 101.696655 -8.392275 -7.654577 -28.796078 -27.129276 137.298477 102.329041
19 101.696655 -8.392275 -7.654577 -27.588615 -28.361088 134.712082 102.329041
[L_rear_hand02]
18 102.726799 -1.568258 5.773216 81.840141 45.725391 170.277420 102.900848
19 102.726799 -1.568258 5.773216 81.431313 48.300438 169.720108 102.900848
[L_rear_hand03]
18 104.552910 9.721220 -10.420293 -166.442245 -20.805418 -134.771133 105.519653
19 104.552910 9.721220 -10.420293 -167.421646 -21.393103 -132.057709 105.519653
